# Blender v2.93.0 OBJ File: 'TestSMG.blend'
# www.blender.org
o Mesh_Mag_Cube.005
v 0.003595 0.499422 -0.508942
v 0.003595 0.249621 -0.442008
v 0.003595 0.066755 -0.259141
v 0.003595 0.066755 0.259141
v 2.446820 0.066755 0.259141
v 0.003595 0.249621 0.442008
v 2.446820 0.249621 0.442008
v 0.003595 0.499422 0.508942
v 2.446820 0.499422 0.508942
v 0.003596 0.749222 0.442008
v 2.446820 0.749222 0.442008
v 0.003596 0.932089 0.259141
v 2.446820 0.932089 0.259141
v 0.003596 0.932089 -0.259141
v 0.003596 0.749222 -0.442008
v 0.003595 0.499422 0.508942
v 0.003595 0.249621 0.442008
v 0.003595 0.066755 0.259141
v 0.003595 -0.000179 0.000000
v 2.446820 -0.000179 0.000000
v 0.003595 0.066755 -0.259141
v 2.446820 0.066755 -0.259141
v 0.003595 0.249621 -0.442008
v 2.446820 0.249621 -0.442008
v 0.003595 0.499422 -0.508942
v 2.446820 0.499422 -0.508942
v 0.003596 0.749222 -0.442008
v 2.446820 0.749222 -0.442008
v 0.003596 0.932089 -0.259141
v 2.446820 0.932089 -0.259141
v 0.003596 0.999023 0.000000
v 2.446820 0.999023 0.000000
v 0.003596 0.932089 0.259141
v 0.003596 0.749222 0.442008
vt 0.750000 0.500000
vt 0.750000 1.000000
vt 0.666667 1.000000
vt 0.666667 0.500000
vt 0.583333 1.000000
vt 0.583333 0.500000
vt 0.500000 1.000000
vt 0.500000 0.500000
vt 0.416667 1.000000
vt 0.416667 0.500000
vt 0.333333 1.000000
vt 0.333333 0.500000
vt 0.250000 1.000000
vt 0.250000 0.500000
vt 0.750000 0.490000
vt 0.870000 0.457846
vt 0.957846 0.370000
vt 0.990000 0.250000
vt 0.957846 0.130000
vt 0.870000 0.042154
vt 0.750000 0.010000
vt 0.630000 0.042154
vt 0.542154 0.130000
vt 0.510000 0.250000
vt 0.542154 0.370000
vt 0.630000 0.457846
vt 0.666667 0.500000
vt 0.666667 1.000000
vt 0.583333 0.500000
vt 0.583333 1.000000
vt 0.500000 0.500000
vt 0.500000 1.000000
vt 0.416667 0.500000
vt 0.416667 1.000000
vt 0.333333 0.500000
vt 0.333333 1.000000
vt 0.750000 0.490000
vt 0.630000 0.457846
vt 0.542154 0.370000
vt 0.542154 0.130000
vt 0.630000 0.042154
vt 0.750000 0.010000
vt 0.870000 0.042154
vt 0.957846 0.130000
vt 0.957846 0.370000
vt 0.870000 0.457846
vn -0.0000 -0.9682 0.2501
vn -0.0000 -0.7071 0.7071
vn -0.0000 -0.2588 0.9659
vn 0.0000 0.2588 0.9659
vn 0.0000 0.7071 0.7071
vn 0.0000 0.9682 0.2501
vn -1.0000 0.0000 0.0000
vn 1.0000 0.0000 0.0000
vn -0.0000 -0.9682 -0.2501
vn -0.0000 -0.7071 -0.7071
vn -0.0000 -0.2588 -0.9659
vn 0.0000 0.2588 -0.9659
vn 0.0000 0.7071 -0.7071
vn 0.0000 0.9682 -0.2501
s off
f 19/1/1 20/2/1 5/3/1 4/4/1
f 4/4/2 5/3/2 7/5/2 6/6/2
f 6/6/3 7/5/3 9/7/3 8/8/3
f 8/8/4 9/7/4 11/9/4 10/10/4
f 10/10/5 11/9/5 13/11/5 12/12/5
f 12/12/6 13/11/6 32/13/6 31/14/6
f 1/15/7 2/16/7 3/17/7 19/18/7 4/19/7 6/20/7 8/21/7 10/22/7 12/23/7 31/24/7 14/25/7 15/26/7
f 5/3/8 20/2/8 32/13/8 13/11/8 11/9/8 9/7/8 7/5/8
f 19/1/9 21/27/9 22/28/9 20/2/9
f 21/27/10 23/29/10 24/30/10 22/28/10
f 23/29/11 25/31/11 26/32/11 24/30/11
f 25/31/12 27/33/12 28/34/12 26/32/12
f 27/33/13 29/35/13 30/36/13 28/34/13
f 29/35/14 31/14/14 32/13/14 30/36/14
f 16/37/7 34/38/7 33/39/7 31/24/7 29/40/7 27/41/7 25/42/7 23/43/7 21/44/7 19/18/7 18/45/7 17/46/7
f 22/28/8 24/30/8 26/32/8 28/34/8 30/36/8 32/13/8 20/2/8
